<svg width="160" height="76" viewBox="0 0 160 76" fill="none" xmlns="http://www.w3.org/2000/svg">
<path d="M18.9167 59.6666H8.82294L8.88544 51.2291H18.9167C21 51.2291 22.7604 50.7291 24.1979 49.7291C25.6563 48.7291 26.7604 47.2395 27.5104 45.2604C28.2813 43.2604 28.6667 40.802 28.6667 37.8854V35.9166C28.6667 33.7291 28.4479 31.8125 28.0104 30.1666C27.5938 28.5 26.9688 27.1145 26.1354 26.0104C25.3021 24.8854 24.2604 24.0416 23.0104 23.4791C21.7813 22.9166 20.3646 22.6354 18.7604 22.6354H8.63544V14.1666H18.7604C21.8438 14.1666 24.6667 14.6979 27.2292 15.7604C29.8125 16.802 32.0417 18.302 33.9167 20.2604C35.8125 22.1979 37.2709 24.5 38.2917 27.1666C39.3334 29.8125 39.8542 32.75 39.8542 35.9791V37.8854C39.8542 41.0937 39.3334 44.0312 38.2917 46.6979C37.2709 49.3645 35.8229 51.6666 33.9479 53.6041C32.0729 55.5416 29.8542 57.0416 27.2917 58.1041C24.75 59.1458 21.9584 59.6666 18.9167 59.6666ZM15.1042 14.1666V59.6666H4.13544V14.1666H15.1042Z" fill="#85171A"/>
<path d="M65.8104 47.5729C65.8104 46.8645 65.7063 46.2291 65.4979 45.6666C65.2896 45.0833 64.9042 44.5416 64.3417 44.0416C63.7792 43.5416 62.9667 43.0416 61.9042 42.5416C60.8625 42.0208 59.4875 41.4791 57.7792 40.9166C55.7792 40.25 53.8521 39.5 51.9979 38.6666C50.1438 37.8125 48.4875 36.8229 47.0292 35.6979C45.5709 34.552 44.4146 33.2187 43.5604 31.6979C42.7063 30.1562 42.2792 28.3645 42.2792 26.3229C42.2792 24.3645 42.7167 22.6041 43.5917 21.0416C44.4667 19.4583 45.6854 18.1145 47.2479 17.0104C48.8313 15.8854 50.6854 15.0312 52.8104 14.4479C54.9354 13.8437 57.2584 13.5416 59.7792 13.5416C63.1125 13.5416 66.05 14.125 68.5917 15.2916C71.1542 16.4375 73.1542 18.0729 74.5917 20.1979C76.05 22.302 76.7792 24.7916 76.7792 27.6666H65.8729C65.8729 26.5208 65.6334 25.5104 65.1542 24.6354C64.6959 23.7604 63.9979 23.0729 63.0604 22.5729C62.1229 22.0729 60.9459 21.8229 59.5292 21.8229C58.1542 21.8229 56.9979 22.0312 56.0604 22.4479C55.1229 22.8645 54.4146 23.427 53.9354 24.1354C53.4563 24.8229 53.2167 25.5833 53.2167 26.4166C53.2167 27.1041 53.4042 27.7291 53.7792 28.2916C54.175 28.8333 54.7271 29.3437 55.4354 29.8229C56.1646 30.302 57.0396 30.7604 58.0604 31.1979C59.1021 31.6354 60.2688 32.0625 61.5604 32.4791C63.9771 33.25 66.1229 34.1145 67.9979 35.0729C69.8938 36.0104 71.4875 37.0833 72.7792 38.2916C74.0917 39.4791 75.0813 40.8333 75.7479 42.3541C76.4354 43.875 76.7792 45.5937 76.7792 47.5104C76.7792 49.552 76.3834 51.3645 75.5917 52.9479C74.8 54.5312 73.6646 55.875 72.1854 56.9791C70.7063 58.0625 68.9354 58.8854 66.8729 59.4479C64.8104 60.0104 62.5084 60.2916 59.9667 60.2916C57.6334 60.2916 55.3313 60 53.0604 59.4166C50.8104 58.8125 48.7688 57.8958 46.9354 56.6666C45.1021 55.4166 43.6334 53.8229 42.5292 51.8854C41.4459 49.927 40.9042 47.6041 40.9042 44.9166H51.9042C51.9042 46.25 52.0813 47.375 52.4354 48.2916C52.7896 49.2083 53.3104 49.9479 53.9979 50.5104C54.6854 51.052 55.5292 51.4479 56.5292 51.6979C57.5292 51.927 58.675 52.0416 59.9667 52.0416C61.3625 52.0416 62.4875 51.8437 63.3417 51.4479C64.1959 51.0312 64.8209 50.4895 65.2167 49.8229C65.6125 49.1354 65.8104 48.3854 65.8104 47.5729Z" fill="#DC2025"/>
<path d="M90.8917 14.1666V59.6666H79.9542V14.1666H90.8917Z" fill="#FEBA08"/>
<path d="M99.0508 25.3334H97.026L97.039 24.0378H99.0508C99.6367 24.0378 100.127 23.9098 100.522 23.6537C100.921 23.3976 101.221 23.0309 101.421 22.5534C101.625 22.076 101.727 21.5074 101.727 20.8477V20.3334C101.727 19.8212 101.668 19.3677 101.551 18.9727C101.438 18.5777 101.269 18.2457 101.043 17.9766C100.822 17.7075 100.548 17.5035 100.223 17.3646C99.9015 17.2257 99.5304 17.1563 99.1094 17.1563H96.987V15.8542H99.1094C99.7387 15.8542 100.314 15.9605 100.835 16.1732C101.355 16.3816 101.805 16.6832 102.182 17.0782C102.564 17.4731 102.857 17.9462 103.061 18.4974C103.265 19.0487 103.367 19.665 103.367 20.3464V20.8477C103.367 21.5291 103.265 22.1454 103.061 22.6967C102.857 23.2479 102.564 23.721 102.182 24.1159C101.8 24.5066 101.345 24.8082 100.815 25.0209C100.29 25.2292 99.7018 25.3334 99.0508 25.3334ZM97.931 15.8542V25.3334H96.2969V15.8542H97.931ZM108.251 23.2045L110.139 15.8542H111.128L111.018 17.7487L108.999 25.3334H107.971L108.251 23.2045ZM106.838 15.8542L108.368 23.1459L108.505 25.3334H107.411L105.217 15.8542H106.838ZM113.27 23.1263L114.781 15.8542H116.408L114.214 25.3334H113.121L113.27 23.1263ZM111.512 15.8542L113.381 23.224L113.654 25.3334H112.626L110.64 17.7487L110.536 15.8542H111.512ZM120.231 15.8542V25.3334H118.597V15.8542H120.231ZM125.883 25.3334H123.858L123.871 24.0378H125.883C126.468 24.0378 126.959 23.9098 127.354 23.6537C127.753 23.3976 128.053 23.0309 128.252 22.5534C128.456 22.076 128.558 21.5074 128.558 20.8477V20.3334C128.558 19.8212 128.5 19.3677 128.383 18.9727C128.27 18.5777 128.1 18.2457 127.875 17.9766C127.653 17.7075 127.38 17.5035 127.054 17.3646C126.733 17.2257 126.362 17.1563 125.941 17.1563H123.819V15.8542H125.941C126.57 15.8542 127.146 15.9605 127.666 16.1732C128.187 16.3816 128.636 16.6832 129.014 17.0782C129.396 17.4731 129.689 17.9462 129.893 18.4974C130.097 19.0487 130.199 19.665 130.199 20.3464V20.8477C130.199 21.5291 130.097 22.1454 129.893 22.6967C129.689 23.2479 129.396 23.721 129.014 24.1159C128.632 24.5066 128.176 24.8082 127.647 25.0209C127.122 25.2292 126.534 25.3334 125.883 25.3334ZM124.763 15.8542V25.3334H123.129V15.8542H124.763ZM136.254 17.1172L133.422 25.3334H131.71L135.278 15.8542H136.372L136.254 17.1172ZM138.624 25.3334L135.786 17.1172L135.662 15.8542H136.762L140.343 25.3334H138.624ZM138.487 21.8177V23.1133H133.331V21.8177H138.487ZM147.258 22.892C147.258 22.6967 147.227 22.523 147.167 22.3711C147.11 22.2192 147.008 22.0803 146.861 21.9545C146.713 21.8286 146.505 21.7071 146.236 21.5899C145.971 21.4684 145.632 21.3447 145.22 21.2188C144.769 21.0799 144.352 20.9258 143.97 20.7566C143.592 20.5829 143.263 20.3833 142.98 20.1576C142.698 19.9276 142.479 19.665 142.323 19.3698C142.167 19.0704 142.089 18.7253 142.089 18.3347C142.089 17.9484 142.169 17.5968 142.329 17.28C142.494 16.9631 142.727 16.6897 143.026 16.4597C143.33 16.2253 143.688 16.0452 144.1 15.9193C144.513 15.7891 144.968 15.724 145.467 15.724C146.171 15.724 146.776 15.8542 147.284 16.1146C147.796 16.375 148.189 16.7244 148.462 17.1628C148.74 17.6012 148.879 18.0851 148.879 18.6146H147.258C147.258 18.3021 147.191 18.0265 147.056 17.7878C146.926 17.5447 146.726 17.3538 146.457 17.2149C146.192 17.076 145.856 17.0066 145.448 17.0066C145.062 17.0066 144.74 17.0651 144.484 17.1823C144.228 17.2995 144.037 17.4579 143.911 17.6576C143.786 17.8572 143.723 18.0829 143.723 18.3347C143.723 18.5126 143.764 18.6754 143.846 18.823C143.929 18.9662 144.055 19.1007 144.224 19.2266C144.393 19.3481 144.606 19.4631 144.862 19.5717C145.118 19.6802 145.42 19.7843 145.767 19.8842C146.292 20.0404 146.75 20.214 147.141 20.405C147.531 20.5916 147.857 20.8043 148.117 21.043C148.378 21.2817 148.573 21.553 148.703 21.8568C148.833 22.1563 148.898 22.497 148.898 22.8789C148.898 23.2783 148.818 23.6385 148.658 23.9597C148.497 24.2765 148.267 24.5478 147.967 24.7735C147.672 24.9948 147.316 25.1663 146.9 25.2878C146.487 25.405 146.027 25.4636 145.52 25.4636C145.064 25.4636 144.615 25.4028 144.172 25.2813C143.733 25.1598 143.334 24.9753 142.974 24.7279C142.614 24.4762 142.327 24.1637 142.115 23.7904C141.902 23.4128 141.796 22.9723 141.796 22.4688H143.43C143.43 22.777 143.482 23.0395 143.586 23.2566C143.694 23.4736 143.844 23.6515 144.035 23.7904C144.226 23.925 144.447 24.0248 144.699 24.0899C144.955 24.155 145.229 24.1875 145.52 24.1875C145.901 24.1875 146.22 24.1333 146.477 24.0248C146.737 23.9163 146.932 23.7644 147.062 23.5691C147.193 23.3737 147.258 23.148 147.258 22.892ZM154.902 17.1172L152.07 25.3334H150.358L153.925 15.8542H155.019L154.902 17.1172ZM157.272 25.3334L154.433 17.1172L154.309 15.8542H155.41L158.99 25.3334H157.272ZM157.135 21.8177V23.1133H151.979V21.8177H157.135Z" fill="black" fill-opacity="0.6"/>
<path d="M101.284 39.2252C101.284 39.0299 101.253 38.8563 101.193 38.7044C101.136 38.5525 101.034 38.4136 100.887 38.2877C100.739 38.1619 100.531 38.0403 100.262 37.9231C99.9969 37.8016 99.6584 37.6779 99.2461 37.552C98.7947 37.4132 98.378 37.2591 97.9961 37.0898C97.6185 36.9162 97.2886 36.7165 97.0065 36.4908C96.7244 36.2608 96.5052 35.9982 96.3489 35.7031C96.1927 35.4036 96.1146 35.0586 96.1146 34.6679C96.1146 34.2816 96.1949 33.9301 96.3554 33.6132C96.5204 33.2964 96.7526 33.023 97.0521 32.7929C97.3559 32.5586 97.714 32.3784 98.1263 32.2526C98.5386 32.1224 98.9943 32.0573 99.4935 32.0573C100.197 32.0573 100.802 32.1875 101.31 32.4479C101.822 32.7083 102.215 33.0577 102.488 33.4961C102.766 33.9344 102.905 34.4184 102.905 34.9479H101.284C101.284 34.6354 101.217 34.3598 101.082 34.1211C100.952 33.878 100.752 33.687 100.483 33.5481C100.218 33.4092 99.8819 33.3398 99.4739 33.3398C99.0877 33.3398 98.7665 33.3984 98.5104 33.5156C98.2543 33.6328 98.0633 33.7912 97.9375 33.9908C97.8116 34.1905 97.7487 34.4162 97.7487 34.6679C97.7487 34.8459 97.7899 35.0086 97.8724 35.1562C97.9548 35.2994 98.0807 35.434 98.25 35.5599C98.4193 35.6814 98.6319 35.7964 98.888 35.9049C99.1441 36.0134 99.4457 36.1176 99.7929 36.2174C100.318 36.3737 100.776 36.5473 101.167 36.7382C101.557 36.9249 101.883 37.1375 102.143 37.3763C102.404 37.615 102.599 37.8862 102.729 38.1901C102.859 38.4895 102.924 38.8303 102.924 39.2122C102.924 39.6115 102.844 39.9717 102.684 40.2929C102.523 40.6098 102.293 40.881 101.993 41.1067C101.698 41.3281 101.342 41.4995 100.926 41.6211C100.513 41.7382 100.053 41.7968 99.5456 41.7968C99.0898 41.7968 98.6406 41.7361 98.1979 41.6145C97.7595 41.493 97.3602 41.3086 97 41.0612C96.6397 40.8094 96.3533 40.4969 96.1406 40.1237C95.9279 39.7461 95.8216 39.3055 95.8216 38.802H97.4557C97.4557 39.1102 97.5078 39.3728 97.612 39.5898C97.7205 39.8068 97.8702 39.9848 98.0612 40.1237C98.2521 40.2582 98.4735 40.358 98.7252 40.4231C98.9813 40.4882 99.2548 40.5208 99.5456 40.5208C99.9275 40.5208 100.247 40.4665 100.503 40.358C100.763 40.2495 100.958 40.0976 101.089 39.9023C101.219 39.707 101.284 39.4813 101.284 39.2252ZM108.261 33.4505L105.429 41.6666H103.717L107.285 32.1875H108.378L108.261 33.4505ZM110.631 41.6666L107.792 33.4505L107.669 32.1875H108.769L112.35 41.6666H110.631ZM110.494 38.151V39.4466H105.338V38.151H110.494ZM114.275 32.1875H115.733L118.474 39.4987L121.209 32.1875H122.667L119.047 41.6666H117.888L114.275 32.1875ZM113.611 32.1875H114.998L115.239 38.5156V41.6666H113.611V32.1875ZM121.944 32.1875H123.337V41.6666H121.703V38.5156L121.944 32.1875ZM130.465 39.2252C130.465 39.0299 130.434 38.8563 130.373 38.7044C130.317 38.5525 130.215 38.4136 130.067 38.2877C129.92 38.1619 129.712 38.0403 129.442 37.9231C129.178 37.8016 128.839 37.6779 128.427 37.552C127.975 37.4132 127.559 37.2591 127.177 37.0898C126.799 36.9162 126.469 36.7165 126.187 36.4908C125.905 36.2608 125.686 35.9982 125.53 35.7031C125.373 35.4036 125.295 35.0586 125.295 34.6679C125.295 34.2816 125.376 33.9301 125.536 33.6132C125.701 33.2964 125.933 33.023 126.233 32.7929C126.537 32.5586 126.895 32.3784 127.307 32.2526C127.719 32.1224 128.175 32.0573 128.674 32.0573C129.377 32.0573 129.983 32.1875 130.491 32.4479C131.003 32.7083 131.396 33.0577 131.669 33.4961C131.947 33.9344 132.086 34.4184 132.086 34.9479H130.465C130.465 34.6354 130.397 34.3598 130.263 34.1211C130.133 33.878 129.933 33.687 129.664 33.5481C129.399 33.4092 129.063 33.3398 128.655 33.3398C128.268 33.3398 127.947 33.3984 127.691 33.5156C127.435 33.6328 127.244 33.7912 127.118 33.9908C126.992 34.1905 126.929 34.4162 126.929 34.6679C126.929 34.8459 126.971 35.0086 127.053 35.1562C127.136 35.2994 127.261 35.434 127.431 35.5599C127.6 35.6814 127.813 35.7964 128.069 35.9049C128.325 36.0134 128.626 36.1176 128.974 36.2174C129.499 36.3737 129.957 36.5473 130.347 36.7382C130.738 36.9249 131.064 37.1375 131.324 37.3763C131.584 37.615 131.78 37.8862 131.91 38.1901C132.04 38.4895 132.105 38.8303 132.105 39.2122C132.105 39.6115 132.025 39.9717 131.864 40.2929C131.704 40.6098 131.474 40.881 131.174 41.1067C130.879 41.3281 130.523 41.4995 130.106 41.6211C129.694 41.7382 129.234 41.7968 128.726 41.7968C128.271 41.7968 127.821 41.7361 127.379 41.6145C126.94 41.493 126.541 41.3086 126.181 41.0612C125.82 40.8094 125.534 40.4969 125.321 40.1237C125.109 39.7461 125.002 39.3055 125.002 38.802H126.636C126.636 39.1102 126.689 39.3728 126.793 39.5898C126.901 39.8068 127.051 39.9848 127.242 40.1237C127.433 40.2582 127.654 40.358 127.906 40.4231C128.162 40.4882 128.435 40.5208 128.726 40.5208C129.108 40.5208 129.427 40.4665 129.683 40.358C129.944 40.2495 130.139 40.0976 130.269 39.9023C130.399 39.707 130.465 39.4813 130.465 39.2252ZM137.442 33.4505L134.61 41.6666H132.898L136.465 32.1875H137.559L137.442 33.4505ZM139.812 41.6666L136.973 33.4505L136.849 32.1875H137.95L141.53 41.6666H139.812ZM139.675 38.151V39.4466H134.519V38.151H139.675ZM142.792 32.1875H146.145C146.865 32.1875 147.479 32.296 147.987 32.513C148.495 32.73 148.883 33.0512 149.152 33.4765C149.426 33.8975 149.562 34.4184 149.562 35.039C149.562 35.5121 149.476 35.9288 149.302 36.289C149.128 36.6493 148.883 36.9531 148.566 37.2005C148.25 37.4435 147.872 37.6323 147.434 37.7669L146.939 38.0078H143.924L143.911 36.7122H146.171C146.561 36.7122 146.887 36.6428 147.147 36.5039C147.408 36.365 147.603 36.1762 147.733 35.9375C147.868 35.6944 147.935 35.421 147.935 35.1171C147.935 34.7873 147.87 34.5008 147.74 34.2578C147.614 34.0104 147.418 33.8216 147.154 33.6914C146.889 33.5568 146.552 33.4895 146.145 33.4895H144.426V41.6666H142.792V32.1875ZM148.202 41.6666L145.975 37.4088L147.687 37.4023L149.947 41.582V41.6666H148.202ZM155.081 33.4505L152.249 41.6666H150.537L154.105 32.1875H155.199L155.081 33.4505ZM157.451 41.6666L154.613 33.4505L154.489 32.1875H155.589L159.17 41.6666H157.451ZM157.315 38.151V39.4466H152.158V38.151H157.315Z" fill="#263238" fill-opacity="0.8"/>
<path d="M98.0416 49.5208V59H96.4075V49.5208H98.0416ZM106.926 49.5208V59H105.292L101.04 52.2096V59H99.4062V49.5208H101.04L105.305 56.3242V49.5208H106.926ZM110.96 59H108.935L108.948 57.7044H110.96C111.546 57.7044 112.036 57.5764 112.431 57.3203C112.83 57.0642 113.13 56.6975 113.329 56.2201C113.533 55.7426 113.635 55.174 113.635 54.5143V54C113.635 53.4878 113.577 53.0343 113.46 52.6393C113.347 52.2444 113.177 51.9123 112.952 51.6432C112.73 51.3741 112.457 51.1701 112.131 51.0312C111.81 50.8924 111.439 50.8229 111.018 50.8229H108.896V49.5208H111.018C111.648 49.5208 112.223 49.6272 112.743 49.8398C113.264 50.0482 113.714 50.3498 114.091 50.7448C114.473 51.1398 114.766 51.6128 114.97 52.1641C115.174 52.7153 115.276 53.3316 115.276 54.013V54.5143C115.276 55.1957 115.174 55.8121 114.97 56.3633C114.766 56.9145 114.473 57.3876 114.091 57.7826C113.709 58.1732 113.253 58.4748 112.724 58.6875C112.199 58.8958 111.611 59 110.96 59ZM109.84 49.5208V59H108.206V49.5208H109.84ZM123.809 54V54.5208C123.809 55.237 123.715 55.8793 123.529 56.4479C123.342 57.0165 123.075 57.5004 122.728 57.8997C122.385 58.299 121.973 58.605 121.491 58.8177C121.009 59.026 120.475 59.1302 119.889 59.1302C119.308 59.1302 118.776 59.026 118.294 58.8177C117.817 58.605 117.402 58.299 117.051 57.8997C116.699 57.5004 116.426 57.0165 116.23 56.4479C116.039 55.8793 115.944 55.237 115.944 54.5208V54C115.944 53.2839 116.039 52.6437 116.23 52.0794C116.421 51.5109 116.691 51.0269 117.038 50.6276C117.389 50.224 117.804 49.918 118.281 49.7096C118.763 49.497 119.295 49.3906 119.876 49.3906C120.462 49.3906 120.996 49.497 121.478 49.7096C121.96 49.918 122.374 50.224 122.721 50.6276C123.069 51.0269 123.335 51.5109 123.522 52.0794C123.713 52.6437 123.809 53.2839 123.809 54ZM122.174 54.5208V53.987C122.174 53.4575 122.122 52.9909 122.018 52.5872C121.918 52.1793 121.769 51.8385 121.569 51.5651C121.374 51.2873 121.133 51.079 120.846 50.9401C120.56 50.7969 120.237 50.7253 119.876 50.7253C119.516 50.7253 119.195 50.7969 118.913 50.9401C118.631 51.079 118.39 51.2873 118.19 51.5651C117.995 51.8385 117.845 52.1793 117.741 52.5872C117.637 52.9909 117.585 53.4575 117.585 53.987V54.5208C117.585 55.0503 117.637 55.5191 117.741 55.9271C117.845 56.3351 117.997 56.6801 118.197 56.9622C118.401 57.24 118.644 57.4505 118.926 57.5937C119.208 57.7326 119.529 57.8021 119.889 57.8021C120.254 57.8021 120.577 57.7326 120.859 57.5937C121.141 57.4505 121.38 57.24 121.576 56.9622C121.771 56.6801 121.918 56.3351 122.018 55.9271C122.122 55.5191 122.174 55.0503 122.174 54.5208ZM132.296 49.5208V59H130.661L126.41 52.2096V59H124.776V49.5208H126.41L130.674 56.3242V49.5208H132.296ZM139.78 57.7044V59H134.747V57.7044H139.78ZM135.21 49.5208V59H133.576V49.5208H135.21ZM139.122 53.4792V54.7552H134.747V53.4792H139.122ZM139.747 49.5208V50.8229H134.747V49.5208H139.747ZM145.435 56.5586C145.435 56.3633 145.404 56.1897 145.344 56.0378C145.287 55.8859 145.185 55.747 145.038 55.6211C144.89 55.4952 144.682 55.3737 144.413 55.2565C144.148 55.135 143.809 55.0113 143.397 54.8854C142.946 54.7465 142.529 54.5924 142.147 54.4232C141.77 54.2496 141.44 54.0499 141.158 53.8242C140.875 53.5942 140.656 53.3316 140.5 53.0365C140.344 52.737 140.266 52.3919 140.266 52.0013C140.266 51.615 140.346 51.2635 140.506 50.9466C140.671 50.6298 140.904 50.3563 141.203 50.1263C141.507 49.8919 141.865 49.7118 142.277 49.5859C142.69 49.4557 143.145 49.3906 143.645 49.3906C144.348 49.3906 144.953 49.5208 145.461 49.7812C145.973 50.0417 146.366 50.3911 146.639 50.8294C146.917 51.2678 147.056 51.7517 147.056 52.2812H145.435C145.435 51.9687 145.368 51.6931 145.233 51.4544C145.103 51.2114 144.903 51.0204 144.634 50.8815C144.369 50.7426 144.033 50.6732 143.625 50.6732C143.239 50.6732 142.918 50.7318 142.661 50.849C142.405 50.9661 142.214 51.1246 142.089 51.3242C141.963 51.5239 141.9 51.7496 141.9 52.0013C141.9 52.1793 141.941 52.342 142.023 52.4896C142.106 52.6328 142.232 52.7674 142.401 52.8932C142.57 53.0148 142.783 53.1298 143.039 53.2383C143.295 53.3468 143.597 53.451 143.944 53.5508C144.469 53.707 144.927 53.8806 145.318 54.0716C145.708 54.2582 146.034 54.4709 146.294 54.7096C146.555 54.9484 146.75 55.2196 146.88 55.5234C147.01 55.8229 147.076 56.1636 147.076 56.5456C147.076 56.9449 146.995 57.3051 146.835 57.6263C146.674 57.9431 146.444 58.2144 146.145 58.4401C145.849 58.6615 145.493 58.8329 145.077 58.9544C144.664 59.0716 144.204 59.1302 143.697 59.1302C143.241 59.1302 142.792 59.0694 142.349 58.9479C141.911 58.8264 141.511 58.6419 141.151 58.3945C140.791 58.1428 140.504 57.8303 140.292 57.457C140.079 57.0794 139.973 56.6389 139.973 56.1354H141.607C141.607 56.4436 141.659 56.7062 141.763 56.9232C141.872 57.1402 142.021 57.3181 142.212 57.457C142.403 57.5916 142.625 57.6914 142.876 57.7565C143.132 57.8216 143.406 57.8542 143.697 57.8542C144.079 57.8542 144.398 57.7999 144.654 57.6914C144.914 57.5829 145.109 57.431 145.24 57.2357C145.37 57.0404 145.435 56.8147 145.435 56.5586ZM149.599 49.5208V59H147.965V49.5208H149.599ZM154.772 50.7839L151.94 59H150.228L153.796 49.5208H154.889L154.772 50.7839ZM157.142 59L154.303 50.7839L154.18 49.5208H155.28L158.861 59H157.142ZM157.005 55.4844V56.7799H151.849V55.4844H157.005Z" fill="#263238"/>
</svg>
